<?xml version="1.0" standalone="no"?>
<!DOCTYPE svg PUBLIC "-//W3C//DTD SVG 20010904//EN"
 "http://www.w3.org/TR/2001/REC-SVG-20010904/DTD/svg10.dtd">
<svg version="1.0" xmlns="http://www.w3.org/2000/svg"
 width="1200.000000pt" height="1200.000000pt" viewBox="0 0 1200.000000 1200.000000"
 preserveAspectRatio="xMidYMid meet">
<metadata>
Created by potrace 1.11, written by Peter Selinger 2001-2013
</metadata>
<g transform="translate(0.000000,1200.000000) scale(0.100000,-0.100000)"
fill="#000000" stroke="none">
<path d="M9064 8691 c-31 -19 -60 -71 -171 -311 -19 -41 -50 -106 -68 -145
-19 -38 -48 -101 -65 -140 -50 -109 -79 -173 -120 -260 -21 -44 -49 -105 -63
-135 -45 -100 -98 -214 -129 -280 -29 -60 -68 -145 -139 -295 -27 -59 -78
-169 -126 -275 -53 -116 -130 -280 -196 -420 -20 -41 -50 -106 -68 -145 -17
-38 -46 -101 -64 -140 -18 -38 -47 -101 -65 -140 -17 -38 -44 -97 -60 -130
-15 -33 -47 -100 -70 -150 -23 -49 -52 -112 -65 -140 -42 -90 -102 -219 -130
-280 -15 -33 -44 -96 -65 -140 -41 -87 -70 -151 -120 -260 -17 -38 -46 -101
-65 -140 -18 -38 -50 -106 -70 -150 -20 -44 -52 -111 -70 -150 -19 -38 -48
-101 -65 -140 -50 -109 -79 -173 -120 -260 -21 -44 -50 -107 -65 -140 -15 -33
-47 -103 -72 -155 -24 -52 -53 -113 -64 -136 -22 -47 -25 -132 -6 -156 6 -9
30 -26 52 -37 38 -20 54 -21 385 -21 341 0 346 0 396 24 69 32 101 75 164 221
23 53 33 76 74 167 14 31 26 59 26 62 0 3 14 36 31 73 17 38 39 86 49 108 9
22 36 83 59 135 23 52 41 100 41 106 0 6 7 17 15 24 8 7 15 20 15 29 0 26 50
67 103 85 42 14 156 16 1024 16 1080 0 1065 1 1146 -62 32 -26 97 -136 97
-164 0 -4 9 -28 21 -53 11 -25 27 -59 34 -76 7 -16 23 -52 35 -80 41 -94 48
-110 71 -165 149 -362 169 -389 328 -430 74 -20 102 -21 378 -18 268 3 302 5
333 22 68 36 80 54 80 117 0 59 -9 83 -105 284 -19 39 -48 102 -66 140 -53
118 -117 256 -195 420 -18 39 -51 111 -74 160 -23 50 -55 117 -70 150 -15 33
-47 101 -70 150 -23 50 -56 122 -74 160 -69 146 -133 283 -193 415 -39 85
-101 218 -138 295 -19 39 -53 111 -76 160 -22 50 -57 124 -76 165 -19 41 -47
102 -63 135 -15 33 -46 98 -68 145 -71 151 -131 279 -202 435 -17 39 -46 102
-65 140 -39 81 -128 270 -157 335 -12 25 -35 77 -53 115 -18 39 -52 111 -74
160 -57 123 -101 216 -144 305 -20 41 -50 107 -67 145 -74 161 -122 266 -205
440 -24 50 -59 124 -78 166 -20 43 -49 87 -67 102 -27 23 -41 27 -98 27 -48 0
-76 -5 -98 -19z m108 -1798 c18 -22 39 -61 68 -128 12 -27 27 -63 35 -80 7
-16 25 -57 40 -90 26 -59 41 -92 76 -170 10 -22 28 -62 39 -90 12 -27 35 -77
50 -110 15 -33 38 -82 50 -110 11 -27 27 -63 35 -80 7 -16 22 -50 33 -75 52
-116 75 -167 87 -195 8 -16 23 -50 33 -75 23 -53 57 -128 101 -222 58 -125 52
-198 -18 -230 -34 -17 -88 -18 -664 -18 l-627 0 -40 25 c-38 24 -40 28 -40 76
0 28 6 63 14 77 8 15 26 54 41 87 14 33 33 75 41 93 8 17 20 47 28 65 8 17 27
59 41 92 15 33 33 75 41 93 14 32 19 43 69 157 15 33 33 75 41 93 8 17 20 47
28 65 53 118 69 155 81 182 8 17 23 51 34 78 23 51 55 125 76 172 8 17 23 50
33 75 11 25 36 80 56 123 20 43 36 80 36 83 0 3 8 16 18 29 20 29 43 32 64 8z"/>
<path d="M775 8654 c-22 -8 -50 -27 -62 -42 l-22 -27 -1 -2538 c0 -2519 0
-2539 20 -2564 11 -14 36 -34 55 -44 32 -18 61 -19 372 -19 318 0 341 2 383
21 50 23 76 47 90 84 6 17 10 366 11 938 0 698 3 920 13 947 8 23 24 41 47 52
32 17 110 18 1206 18 767 0 1181 -3 1198 -10 15 -6 35 -20 46 -33 18 -21 18
-59 19 -950 0 -998 -2 -967 51 -1013 62 -53 77 -55 451 -52 l346 3 38 31 c21
17 42 44 46 62 5 17 7 1163 6 2546 l-3 2516 -30 30 c-47 46 -102 52 -474 48
-354 -4 -355 -4 -401 -61 l-25 -31 -5 -1101 c-3 -605 -6 -1101 -8 -1102 -1 -1
-17 -11 -36 -22 -33 -21 -35 -21 -1220 -21 -1084 0 -1189 1 -1212 16 -14 9
-30 26 -37 38 -9 16 -13 286 -17 1118 l-5 1096 -24 26 c-48 51 -85 56 -445 55
-264 0 -339 -3 -371 -15z"/>
</g>
</svg>
